<svg width="190" height="52" viewBox="0 0 190 52" fill="none" xmlns="http://www.w3.org/2000/svg">
<g clip-path="url(#clip0_451_10655)">
<path d="M25.7516 1.01098e-06C20.6083 -0.00143287 15.58 1.52243 11.3028 4.37887C7.02557 7.23531 3.69148 11.296 1.72222 16.0474C-0.247047 20.7989 -0.763032 26.0275 0.239505 31.0722C1.24204 36.1169 3.71806 40.751 7.35445 44.3884C10.9908 48.0258 15.6242 50.5031 20.6686 51.5071C25.713 52.511 30.9419 51.9965 35.6938 50.0285C40.4458 48.0606 44.5074 44.7276 47.3651 40.4512C50.2227 36.1748 51.748 31.147 51.748 26.0036C51.7403 19.1106 48.9992 12.5021 44.1258 7.62732C39.2524 2.75257 32.6446 0.00959432 25.7516 1.01098e-06ZM5.27927 32.6223C6.38269 33.1072 7.58961 33.3094 8.79081 33.2104C9.99201 33.1115 11.1496 32.7147 12.1588 32.0558C13.1681 31.3969 13.9971 30.4968 14.5709 29.4369C15.1447 28.377 15.4453 27.1908 15.4453 25.9855C15.4453 24.7802 15.1447 23.594 14.5709 22.5341C13.9971 21.4742 13.1681 20.5741 12.1588 19.9152C11.1496 19.2563 9.99201 18.8595 8.79081 18.7605C7.58961 18.6616 6.38269 18.8638 5.27927 19.3487C6.6556 17.6215 8.53485 16.365 10.6568 15.7531C12.7788 15.1412 15.0385 15.2041 17.1231 15.9331C19.2078 16.6621 21.0142 18.0212 22.2923 19.8222C23.5704 21.6232 24.257 23.7771 24.257 25.9855C24.257 28.1939 23.5704 30.3478 22.2923 32.1488C21.0142 33.9498 19.2078 35.3089 17.1231 36.0379C15.0385 36.7669 12.7788 36.8298 10.6568 36.2179C8.53485 35.6059 6.6556 34.3494 5.27927 32.6223ZM4.55433 25.9891C4.55433 25.2722 4.76691 24.5714 5.1652 23.9753C5.56349 23.3793 6.12961 22.9147 6.79194 22.6403C7.45426 22.366 8.18306 22.2942 8.88618 22.4341C9.58931 22.5739 10.2352 22.9191 10.7421 23.4261C11.249 23.933 11.5942 24.5789 11.7341 25.282C11.874 25.9851 11.8022 26.7139 11.5278 27.3762C11.2535 28.0386 10.7889 28.6047 10.1928 29.0029C9.59674 29.4012 8.89593 29.6138 8.17903 29.6138C7.21895 29.6157 6.29732 29.2367 5.61641 28.5599C4.93549 27.883 4.55093 26.9637 4.54709 26.0036L4.55433 25.9891ZM9.74491 38.6103C11.7164 39.2132 13.8018 39.3453 15.8336 38.9963C17.8654 38.6472 19.7871 37.8266 21.4443 36.6003C23.1016 35.3741 24.4482 33.7763 25.3761 31.9354C26.3041 30.0945 26.7874 28.0616 26.7874 26C26.7874 23.9384 26.3041 21.9055 25.3761 20.0646C24.4482 18.2236 23.1016 16.6259 21.4443 15.3997C19.7871 14.1734 17.8654 13.3528 15.8336 13.0037C13.8018 12.6547 11.7164 12.7868 9.74491 13.3897C12.1163 11.5071 14.9704 10.3314 17.9796 9.99734C20.9889 9.66332 24.0314 10.1846 26.7578 11.5013C29.4843 12.818 31.7842 14.8768 33.3936 17.4413C35.0031 20.0059 35.8568 22.9722 35.8568 26C35.8568 29.0277 35.0031 31.9941 33.3936 34.5587C31.7842 37.1232 29.4843 39.182 26.7578 40.4987C24.0314 41.8154 20.9889 42.3367 17.9796 42.0026C14.9704 41.6686 12.1163 40.4929 9.74491 38.6103ZM25.7516 47.6503C22.9105 47.6527 20.0968 47.0942 17.472 46.007C14.8471 44.9197 12.4627 43.325 10.4554 41.3144C13.1719 42.9628 16.278 43.8589 19.4552 43.9109C22.6323 43.9628 25.7661 43.1688 28.5351 41.6101C31.3041 40.0514 33.6087 37.7842 35.2124 35.0411C36.8162 32.2979 37.6614 29.1776 37.6614 26C37.6614 22.8224 36.8162 19.7021 35.2124 16.9589C33.6087 14.2158 31.3041 11.9486 28.5351 10.3899C25.7661 8.83122 22.6323 8.03714 19.4552 8.0891C16.278 8.14107 13.1719 9.03721 10.4554 10.6856C12.9746 8.17256 16.0744 6.31929 19.4806 5.28984C22.8868 4.26038 26.4942 4.08648 29.9836 4.78354C33.4731 5.4806 36.7368 7.02712 39.4861 9.28621C42.2353 11.5453 44.3852 14.4473 45.7456 17.7354C47.1059 21.0234 47.6348 24.5961 47.2852 28.1373C46.9357 31.6784 45.7186 35.0788 43.7416 38.0374C41.7647 40.996 39.0888 43.4217 35.951 45.0997C32.8131 46.7776 29.31 47.6562 25.7516 47.6576V47.6503Z" fill="#FF679B"/>
</g>
<g clip-path="url(#clip1_451_10655)">
<path d="M60 42.9999V17.2527H65.9467V19.7045H66.0259C67.2882 17.6862 69.2705 16.6747 71.9726 16.67C73.124 16.6367 74.2696 16.8429 75.3351 17.2751C76.4005 17.7073 77.3619 18.3558 78.1569 19.1786C79.7888 20.8558 80.6047 23.208 80.6047 26.2354C80.6047 29.2629 79.7888 31.6175 78.1569 33.2994C77.3616 34.1213 76.3999 34.7687 75.3344 35.1997C74.269 35.6307 73.1236 35.8355 71.9726 35.8009C69.2753 35.8009 67.293 34.7918 66.0259 32.7735H65.9467V42.9999H60ZM70.324 30.4355C70.8745 30.4544 71.4232 30.3627 71.9368 30.166C72.4504 29.9694 72.9182 29.6718 73.3118 29.2913C74.0757 28.4535 74.4984 27.3662 74.4984 26.239C74.4984 25.1118 74.0757 24.0245 73.3118 23.1867C72.9182 22.8062 72.4504 22.5086 71.9368 22.312C71.4232 22.1153 70.8745 22.0236 70.324 22.0426C69.751 22.0193 69.1791 22.1106 68.6428 22.311C68.1064 22.5114 67.6166 22.8167 67.2029 23.2087C66.7891 23.6007 66.4599 24.0712 66.235 24.5919C66.0101 25.1127 65.8941 25.6729 65.8941 26.239C65.8941 26.8051 66.0101 27.3653 66.235 27.8861C66.4599 28.4068 66.7891 28.8773 67.2029 29.2693C67.6166 29.6613 68.1064 29.9666 68.6428 30.167C69.1791 30.3674 69.751 30.4587 70.324 30.4355Z" fill="#87FFFF"/>
<path d="M89.9424 35.8012C89.0248 35.8391 88.1089 35.6916 87.251 35.3677C86.3931 35.0439 85.6112 34.5506 84.9533 33.9179C83.679 32.66 83.0454 30.8052 83.0454 28.3392V17.2529H89.1937V27.0529C89.1937 29.4692 90.1872 30.6702 92.1815 30.6702C94.4709 30.6702 95.6084 29.0925 95.6084 25.9301V17.2529H101.562V35.2184H95.7308V32.4184H95.6516C94.2357 34.6783 92.3327 35.8059 89.9424 35.8012Z" fill="#87FFFF"/>
<path d="M111.188 8V35.2183H105.234V8H111.188Z" fill="#87FFFF"/>
<path d="M120.864 30.2793H130.158V35.2539H113.6V30.8265L122.109 22.2275H114.24V17.2529H129.568V21.5737L120.864 30.2793Z" fill="#87FFFF"/>
<path d="M139.416 35.8009C138.265 35.8355 137.12 35.6307 136.055 35.1997C134.989 34.7687 134.027 34.1213 133.232 33.2994C131.605 31.6223 130.792 29.2676 130.792 26.2354C130.792 23.2033 131.605 20.851 133.232 19.1786C134.027 18.3558 134.989 17.7073 136.054 17.2751C137.119 16.8429 138.265 16.6367 139.416 16.67C142.123 16.67 144.106 17.6815 145.363 19.7045H145.442V17.2527H151.389V35.2182H145.442V32.7735H145.363C144.106 34.7918 142.123 35.8009 139.416 35.8009ZM141.072 30.4355C141.645 30.4587 142.217 30.3674 142.753 30.167C143.29 29.9666 143.78 29.6613 144.193 29.2693C144.607 28.8773 144.936 28.4068 145.161 27.8861C145.386 27.3653 145.502 26.8051 145.502 26.239C145.502 25.6729 145.386 25.1127 145.161 24.5919C144.936 24.0712 144.607 23.6007 144.193 23.2087C143.78 22.8167 143.29 22.5114 142.753 22.311C142.217 22.1106 141.645 22.0193 141.072 22.0426C140.521 22.0231 139.971 22.1144 139.456 22.3111C138.941 22.5078 138.472 22.8057 138.077 23.1867C137.316 24.026 136.896 25.1127 136.896 26.239C136.896 27.3653 137.316 28.4521 138.077 29.2913C138.472 29.6723 138.941 29.9702 139.456 30.1669C139.971 30.3636 140.521 30.4549 141.072 30.4355Z" fill="#87FFFF"/>
<path d="M162.498 35.8008C161.347 35.835 160.202 35.6299 159.136 35.199C158.071 34.768 157.109 34.1208 156.314 33.2993C154.687 31.6222 153.873 29.2675 153.873 26.2354C153.873 23.2032 154.687 20.8509 156.314 19.1785C157.109 18.3561 158.07 17.7078 159.136 17.2756C160.201 16.8435 161.347 16.6371 162.498 16.6699C165.205 16.6699 167.187 17.6814 168.445 19.7044H168.524V17.2526H174.478V35.2181H168.524V32.7734H168.445C167.187 34.7917 165.205 35.8008 162.498 35.8008ZM164.154 30.4354C165.074 30.3965 165.953 30.0462 166.642 29.4431C167.332 28.8401 167.79 28.0212 167.939 27.124C168.089 26.2269 167.921 25.3062 167.464 24.5168C167.007 23.7273 166.289 23.1172 165.43 22.789C164.571 22.4609 163.624 22.4346 162.747 22.7147C161.871 22.9948 161.119 23.5641 160.618 24.3271C160.117 25.09 159.897 25.9999 159.996 26.9039C160.094 27.808 160.505 28.6509 161.159 29.2912C161.555 29.6699 162.025 29.9662 162.539 30.1628C163.053 30.3593 163.602 30.452 164.154 30.4354Z" fill="#87FFFF"/>
<path d="M190 16.7128V22.5828H189.482C187.459 22.5828 186.026 23.0234 185.162 23.9047C184.298 24.7859 183.902 26.3564 183.902 28.6092V35.2184H177.956V17.2529H183.787V20.9128H183.866C184.231 19.6372 185.029 18.524 186.126 17.7595C187.223 16.9949 188.552 16.6254 189.892 16.7128H190Z" fill="#87FFFF"/>
</g>
<defs>
<clipPath id="clip0_451_10655">
<rect width="52" height="52" fill="white"/>
</clipPath>
<clipPath id="clip1_451_10655">
<rect width="130" height="35" fill="white" transform="translate(60 8)"/>
</clipPath>
</defs>
</svg>
